<?xml version="1.0" encoding="UTF-8" standalone="no"?>
<!DOCTYPE svg PUBLIC "-//W3C//DTD SVG 1.1//EN"
 "http://www.w3.org/Graphics/SVG/1.1/DTD/svg11.dtd">
<!-- Generated by graphviz version 2.43.0 (0)
 -->
<!-- Title: controllers_diagram Pages: 1 -->
<svg width="731pt" height="797pt"
 viewBox="0.00 0.00 731.00 797.00" xmlns="http://www.w3.org/2000/svg" xmlns:xlink="http://www.w3.org/1999/xlink">
<g id="graph0" class="graph" transform="scale(1 1) rotate(0) translate(4 793)">
<title>controllers_diagram</title>
<polygon fill="transparent" stroke="transparent" points="-4,4 -4,-793 727,-793 727,4 -4,4"/>
<!-- _diagram_info -->
<g id="node1" class="node">
<title>_diagram_info</title>
<text text-anchor="start" x="288" y="-103.6" font-family="Times,serif" font-size="13.00">Controllers diagram</text>
<text text-anchor="start" x="288" y="-89.6" font-family="Times,serif" font-size="13.00">Date: Jun 06 2024 &#45; 15:30</text>
<text text-anchor="start" x="288" y="-75.6" font-family="Times,serif" font-size="13.00">Migration version: 20240606080159</text>
<text text-anchor="start" x="288" y="-61.6" font-family="Times,serif" font-size="13.00">Generated by RailRoady 1.6.0</text>
<text text-anchor="start" x="288" y="-47.6" font-family="Times,serif" font-size="13.00">http://railroady.prestonlee.com</text>
</g>
<!-- AnnouncementsController -->
<g id="node2" class="node">
<title>AnnouncementsController</title>
<path fill="none" stroke="black" d="M552,-0.5C552,-0.5 689,-0.5 689,-0.5 695,-0.5 701,-6.5 701,-12.5 701,-12.5 701,-111.5 701,-111.5 701,-117.5 695,-123.5 689,-123.5 689,-123.5 552,-123.5 552,-123.5 546,-123.5 540,-117.5 540,-111.5 540,-111.5 540,-12.5 540,-12.5 540,-6.5 546,-0.5 552,-0.5"/>
<text text-anchor="middle" x="620.5" y="-108.3" font-family="Times,serif" font-size="14.00">AnnouncementsController</text>
<polyline fill="none" stroke="black" points="540,-100.5 701,-100.5 "/>
<text text-anchor="start" x="548" y="-85.3" font-family="Times,serif" font-size="14.00">index</text>
<polyline fill="none" stroke="black" points="540,-77.5 701,-77.5 "/>
<polyline fill="none" stroke="black" points="540,-53.5 701,-53.5 "/>
<text text-anchor="start" x="548" y="-38.3" font-family="Times,serif" font-size="14.00">_layout</text>
<text text-anchor="start" x="548" y="-23.3" font-family="Times,serif" font-size="14.00">_layout_from_proc</text>
<text text-anchor="start" x="548" y="-8.3" font-family="Times,serif" font-size="14.00">mark_as_read</text>
</g>
<!-- ApplicationController -->
<g id="node3" class="node">
<title>ApplicationController</title>
<path fill="none" stroke="black" d="M192,-480.5C192,-480.5 362,-480.5 362,-480.5 368,-480.5 374,-486.5 374,-492.5 374,-492.5 374,-620.5 374,-620.5 374,-626.5 368,-632.5 362,-632.5 362,-632.5 192,-632.5 192,-632.5 186,-632.5 180,-626.5 180,-620.5 180,-620.5 180,-492.5 180,-492.5 180,-486.5 186,-480.5 192,-480.5"/>
<text text-anchor="middle" x="277" y="-617.3" font-family="Times,serif" font-size="14.00">ApplicationController</text>
<polyline fill="none" stroke="black" points="180,-609.5 374,-609.5 "/>
<text text-anchor="start" x="188" y="-594.3" font-family="Times,serif" font-size="14.00">current_user</text>
<text text-anchor="start" x="188" y="-579.3" font-family="Times,serif" font-size="14.00">impersonate_user</text>
<text text-anchor="start" x="188" y="-564.3" font-family="Times,serif" font-size="14.00">stop_impersonating_user</text>
<text text-anchor="start" x="188" y="-549.3" font-family="Times,serif" font-size="14.00">true_user</text>
<polyline fill="none" stroke="black" points="180,-541.5 374,-541.5 "/>
<text text-anchor="start" x="188" y="-526.3" font-family="Times,serif" font-size="14.00">configure_permitted_parameters</text>
<polyline fill="none" stroke="black" points="180,-518.5 374,-518.5 "/>
<text text-anchor="start" x="188" y="-503.3" font-family="Times,serif" font-size="14.00">_layout</text>
<text text-anchor="start" x="188" y="-488.3" font-family="Times,serif" font-size="14.00">_layout_from_proc</text>
</g>
<!-- ArticlesController -->
<g id="node4" class="node">
<title>ArticlesController</title>
<path fill="none" stroke="black" d="M32,-560.5C32,-560.5 130,-560.5 130,-560.5 136,-560.5 142,-566.5 142,-572.5 142,-572.5 142,-776.5 142,-776.5 142,-782.5 136,-788.5 130,-788.5 130,-788.5 32,-788.5 32,-788.5 26,-788.5 20,-782.5 20,-776.5 20,-776.5 20,-572.5 20,-572.5 20,-566.5 26,-560.5 32,-560.5"/>
<text text-anchor="middle" x="81" y="-773.3" font-family="Times,serif" font-size="14.00">ArticlesController</text>
<polyline fill="none" stroke="black" points="20,-765.5 142,-765.5 "/>
<text text-anchor="start" x="28" y="-750.3" font-family="Times,serif" font-size="14.00">create</text>
<text text-anchor="start" x="28" y="-735.3" font-family="Times,serif" font-size="14.00">destroy</text>
<text text-anchor="start" x="28" y="-720.3" font-family="Times,serif" font-size="14.00">edit</text>
<text text-anchor="start" x="28" y="-705.3" font-family="Times,serif" font-size="14.00">index</text>
<text text-anchor="start" x="28" y="-690.3" font-family="Times,serif" font-size="14.00">new</text>
<text text-anchor="start" x="28" y="-675.3" font-family="Times,serif" font-size="14.00">show</text>
<text text-anchor="start" x="28" y="-660.3" font-family="Times,serif" font-size="14.00">update</text>
<polyline fill="none" stroke="black" points="20,-652.5 142,-652.5 "/>
<polyline fill="none" stroke="black" points="20,-628.5 142,-628.5 "/>
<text text-anchor="start" x="28" y="-613.3" font-family="Times,serif" font-size="14.00">_layout</text>
<text text-anchor="start" x="28" y="-598.3" font-family="Times,serif" font-size="14.00">_layout_from_proc</text>
<text text-anchor="start" x="28" y="-583.3" font-family="Times,serif" font-size="14.00">article_params</text>
<text text-anchor="start" x="28" y="-568.3" font-family="Times,serif" font-size="14.00">set_article</text>
</g>
<!-- AuthorsController -->
<g id="node5" class="node">
<title>AuthorsController</title>
<path fill="none" stroke="black" d="M12,-300.5C12,-300.5 110,-300.5 110,-300.5 116,-300.5 122,-306.5 122,-312.5 122,-312.5 122,-516.5 122,-516.5 122,-522.5 116,-528.5 110,-528.5 110,-528.5 12,-528.5 12,-528.5 6,-528.5 0,-522.5 0,-516.5 0,-516.5 0,-312.5 0,-312.5 0,-306.5 6,-300.5 12,-300.5"/>
<text text-anchor="middle" x="61" y="-513.3" font-family="Times,serif" font-size="14.00">AuthorsController</text>
<polyline fill="none" stroke="black" points="0,-505.5 122,-505.5 "/>
<text text-anchor="start" x="8" y="-490.3" font-family="Times,serif" font-size="14.00">create</text>
<text text-anchor="start" x="8" y="-475.3" font-family="Times,serif" font-size="14.00">destroy</text>
<text text-anchor="start" x="8" y="-460.3" font-family="Times,serif" font-size="14.00">edit</text>
<text text-anchor="start" x="8" y="-445.3" font-family="Times,serif" font-size="14.00">index</text>
<text text-anchor="start" x="8" y="-430.3" font-family="Times,serif" font-size="14.00">new</text>
<text text-anchor="start" x="8" y="-415.3" font-family="Times,serif" font-size="14.00">show</text>
<text text-anchor="start" x="8" y="-400.3" font-family="Times,serif" font-size="14.00">update</text>
<polyline fill="none" stroke="black" points="0,-392.5 122,-392.5 "/>
<polyline fill="none" stroke="black" points="0,-368.5 122,-368.5 "/>
<text text-anchor="start" x="8" y="-353.3" font-family="Times,serif" font-size="14.00">_layout</text>
<text text-anchor="start" x="8" y="-338.3" font-family="Times,serif" font-size="14.00">_layout_from_proc</text>
<text text-anchor="start" x="8" y="-323.3" font-family="Times,serif" font-size="14.00">author_params</text>
<text text-anchor="start" x="8" y="-308.3" font-family="Times,serif" font-size="14.00">set_author</text>
</g>
<!-- HomeController -->
<g id="node6" class="node">
<title>HomeController</title>
<path fill="none" stroke="black" d="M592,-380.5C592,-380.5 690,-380.5 690,-380.5 696,-380.5 702,-386.5 702,-392.5 702,-392.5 702,-506.5 702,-506.5 702,-512.5 696,-518.5 690,-518.5 690,-518.5 592,-518.5 592,-518.5 586,-518.5 580,-512.5 580,-506.5 580,-506.5 580,-392.5 580,-392.5 580,-386.5 586,-380.5 592,-380.5"/>
<text text-anchor="middle" x="641" y="-503.3" font-family="Times,serif" font-size="14.00">HomeController</text>
<polyline fill="none" stroke="black" points="580,-495.5 702,-495.5 "/>
<text text-anchor="start" x="588" y="-480.3" font-family="Times,serif" font-size="14.00">index</text>
<text text-anchor="start" x="588" y="-465.3" font-family="Times,serif" font-size="14.00">privacy</text>
<text text-anchor="start" x="588" y="-450.3" font-family="Times,serif" font-size="14.00">terms</text>
<polyline fill="none" stroke="black" points="580,-442.5 702,-442.5 "/>
<polyline fill="none" stroke="black" points="580,-418.5 702,-418.5 "/>
<text text-anchor="start" x="588" y="-403.3" font-family="Times,serif" font-size="14.00">_layout</text>
<text text-anchor="start" x="588" y="-388.3" font-family="Times,serif" font-size="14.00">_layout_from_proc</text>
</g>
<!-- IssuesController -->
<g id="node7" class="node">
<title>IssuesController</title>
<path fill="none" stroke="black" d="M12,-40.5C12,-40.5 110,-40.5 110,-40.5 116,-40.5 122,-46.5 122,-52.5 122,-52.5 122,-256.5 122,-256.5 122,-262.5 116,-268.5 110,-268.5 110,-268.5 12,-268.5 12,-268.5 6,-268.5 0,-262.5 0,-256.5 0,-256.5 0,-52.5 0,-52.5 0,-46.5 6,-40.5 12,-40.5"/>
<text text-anchor="middle" x="61" y="-253.3" font-family="Times,serif" font-size="14.00">IssuesController</text>
<polyline fill="none" stroke="black" points="0,-245.5 122,-245.5 "/>
<text text-anchor="start" x="8" y="-230.3" font-family="Times,serif" font-size="14.00">create</text>
<text text-anchor="start" x="8" y="-215.3" font-family="Times,serif" font-size="14.00">destroy</text>
<text text-anchor="start" x="8" y="-200.3" font-family="Times,serif" font-size="14.00">edit</text>
<text text-anchor="start" x="8" y="-185.3" font-family="Times,serif" font-size="14.00">index</text>
<text text-anchor="start" x="8" y="-170.3" font-family="Times,serif" font-size="14.00">new</text>
<text text-anchor="start" x="8" y="-155.3" font-family="Times,serif" font-size="14.00">show</text>
<text text-anchor="start" x="8" y="-140.3" font-family="Times,serif" font-size="14.00">update</text>
<polyline fill="none" stroke="black" points="0,-132.5 122,-132.5 "/>
<polyline fill="none" stroke="black" points="0,-108.5 122,-108.5 "/>
<text text-anchor="start" x="8" y="-93.3" font-family="Times,serif" font-size="14.00">_layout</text>
<text text-anchor="start" x="8" y="-78.3" font-family="Times,serif" font-size="14.00">_layout_from_proc</text>
<text text-anchor="start" x="8" y="-63.3" font-family="Times,serif" font-size="14.00">issue_params</text>
<text text-anchor="start" x="8" y="-48.3" font-family="Times,serif" font-size="14.00">set_issue</text>
</g>
<!-- Madmin::ImpersonatesController -->
<g id="node8" class="node">
<title>Madmin::ImpersonatesController</title>
<path fill="none" stroke="black" d="M432,-160.5C432,-160.5 608,-160.5 608,-160.5 614,-160.5 620,-166.5 620,-172.5 620,-172.5 620,-331.5 620,-331.5 620,-337.5 614,-343.5 608,-343.5 608,-343.5 432,-343.5 432,-343.5 426,-343.5 420,-337.5 420,-331.5 420,-331.5 420,-172.5 420,-172.5 420,-166.5 426,-160.5 432,-160.5"/>
<text text-anchor="middle" x="520" y="-328.3" font-family="Times,serif" font-size="14.00">Madmin::ImpersonatesController</text>
<polyline fill="none" stroke="black" points="420,-320.5 620,-320.5 "/>
<text text-anchor="start" x="428" y="-305.3" font-family="Times,serif" font-size="14.00">current_user</text>
<text text-anchor="start" x="428" y="-290.3" font-family="Times,serif" font-size="14.00">impersonate</text>
<text text-anchor="start" x="428" y="-275.3" font-family="Times,serif" font-size="14.00">impersonate_user</text>
<text text-anchor="start" x="428" y="-260.3" font-family="Times,serif" font-size="14.00">stop_impersonating</text>
<text text-anchor="start" x="428" y="-245.3" font-family="Times,serif" font-size="14.00">stop_impersonating_user</text>
<text text-anchor="start" x="428" y="-230.3" font-family="Times,serif" font-size="14.00">true_user</text>
<polyline fill="none" stroke="black" points="420,-222.5 620,-222.5 "/>
<polyline fill="none" stroke="black" points="420,-198.5 620,-198.5 "/>
<text text-anchor="start" x="428" y="-183.3" font-family="Times,serif" font-size="14.00">_layout</text>
<text text-anchor="start" x="428" y="-168.3" font-family="Times,serif" font-size="14.00">_layout_from_proc</text>
</g>
<!-- MagazinesController -->
<g id="node9" class="node">
<title>MagazinesController</title>
<path fill="none" stroke="black" d="M432,-380.5C432,-380.5 539,-380.5 539,-380.5 545,-380.5 551,-386.5 551,-392.5 551,-392.5 551,-596.5 551,-596.5 551,-602.5 545,-608.5 539,-608.5 539,-608.5 432,-608.5 432,-608.5 426,-608.5 420,-602.5 420,-596.5 420,-596.5 420,-392.5 420,-392.5 420,-386.5 426,-380.5 432,-380.5"/>
<text text-anchor="middle" x="485.5" y="-593.3" font-family="Times,serif" font-size="14.00">MagazinesController</text>
<polyline fill="none" stroke="black" points="420,-585.5 551,-585.5 "/>
<text text-anchor="start" x="428" y="-570.3" font-family="Times,serif" font-size="14.00">create</text>
<text text-anchor="start" x="428" y="-555.3" font-family="Times,serif" font-size="14.00">destroy</text>
<text text-anchor="start" x="428" y="-540.3" font-family="Times,serif" font-size="14.00">edit</text>
<text text-anchor="start" x="428" y="-525.3" font-family="Times,serif" font-size="14.00">index</text>
<text text-anchor="start" x="428" y="-510.3" font-family="Times,serif" font-size="14.00">new</text>
<text text-anchor="start" x="428" y="-495.3" font-family="Times,serif" font-size="14.00">show</text>
<text text-anchor="start" x="428" y="-480.3" font-family="Times,serif" font-size="14.00">update</text>
<polyline fill="none" stroke="black" points="420,-472.5 551,-472.5 "/>
<polyline fill="none" stroke="black" points="420,-448.5 551,-448.5 "/>
<text text-anchor="start" x="428" y="-433.3" font-family="Times,serif" font-size="14.00">_layout</text>
<text text-anchor="start" x="428" y="-418.3" font-family="Times,serif" font-size="14.00">_layout_from_proc</text>
<text text-anchor="start" x="428" y="-403.3" font-family="Times,serif" font-size="14.00">magazine_params</text>
<text text-anchor="start" x="428" y="-388.3" font-family="Times,serif" font-size="14.00">set_magazine</text>
</g>
<!-- NotificationsController -->
<g id="node10" class="node">
<title>NotificationsController</title>
<path fill="none" stroke="black" d="M592,-560.5C592,-560.5 711,-560.5 711,-560.5 717,-560.5 723,-566.5 723,-572.5 723,-572.5 723,-656.5 723,-656.5 723,-662.5 717,-668.5 711,-668.5 711,-668.5 592,-668.5 592,-668.5 586,-668.5 580,-662.5 580,-656.5 580,-656.5 580,-572.5 580,-572.5 580,-566.5 586,-560.5 592,-560.5"/>
<text text-anchor="middle" x="651.5" y="-653.3" font-family="Times,serif" font-size="14.00">NotificationsController</text>
<polyline fill="none" stroke="black" points="580,-645.5 723,-645.5 "/>
<text text-anchor="start" x="588" y="-630.3" font-family="Times,serif" font-size="14.00">index</text>
<polyline fill="none" stroke="black" points="580,-622.5 723,-622.5 "/>
<polyline fill="none" stroke="black" points="580,-598.5 723,-598.5 "/>
<text text-anchor="start" x="588" y="-583.3" font-family="Times,serif" font-size="14.00">_layout</text>
<text text-anchor="start" x="588" y="-568.3" font-family="Times,serif" font-size="14.00">_layout_from_proc</text>
</g>
<!-- Users::OmniauthCallbacksController -->
<g id="node11" class="node">
<title>Users::OmniauthCallbacksController</title>
<path fill="none" stroke="black" d="M172,-160.5C172,-160.5 366,-160.5 366,-160.5 372,-160.5 378,-166.5 378,-172.5 378,-172.5 378,-421.5 378,-421.5 378,-427.5 372,-433.5 366,-433.5 366,-433.5 172,-433.5 172,-433.5 166,-433.5 160,-427.5 160,-421.5 160,-421.5 160,-172.5 160,-172.5 160,-166.5 166,-160.5 172,-160.5"/>
<text text-anchor="middle" x="269" y="-418.3" font-family="Times,serif" font-size="14.00">Users::OmniauthCallbacksController</text>
<polyline fill="none" stroke="black" points="160,-410.5 378,-410.5 "/>
<text text-anchor="start" x="168" y="-395.3" font-family="Times,serif" font-size="14.00">facebook</text>
<text text-anchor="start" x="168" y="-380.3" font-family="Times,serif" font-size="14.00">failure</text>
<text text-anchor="start" x="168" y="-365.3" font-family="Times,serif" font-size="14.00">github</text>
<text text-anchor="start" x="168" y="-350.3" font-family="Times,serif" font-size="14.00">service</text>
<text text-anchor="start" x="168" y="-335.3" font-family="Times,serif" font-size="14.00">twitter</text>
<text text-anchor="start" x="168" y="-320.3" font-family="Times,serif" font-size="14.00">user</text>
<polyline fill="none" stroke="black" points="160,-312.5 378,-312.5 "/>
<polyline fill="none" stroke="black" points="160,-288.5 378,-288.5 "/>
<text text-anchor="start" x="168" y="-273.3" font-family="Times,serif" font-size="14.00">_layout</text>
<text text-anchor="start" x="168" y="-258.3" font-family="Times,serif" font-size="14.00">_layout_from_proc</text>
<text text-anchor="start" x="168" y="-243.3" font-family="Times,serif" font-size="14.00">auth</text>
<text text-anchor="start" x="168" y="-228.3" font-family="Times,serif" font-size="14.00">create_user</text>
<text text-anchor="start" x="168" y="-213.3" font-family="Times,serif" font-size="14.00">handle_auth</text>
<text text-anchor="start" x="168" y="-198.3" font-family="Times,serif" font-size="14.00">service_attrs</text>
<text text-anchor="start" x="168" y="-183.3" font-family="Times,serif" font-size="14.00">set_service</text>
<text text-anchor="start" x="168" y="-168.3" font-family="Times,serif" font-size="14.00">set_user</text>
</g>
</g>
</svg>
