<?xml version="1.0" encoding="UTF-8" standalone="no"?>
<!DOCTYPE svg PUBLIC "-//W3C//DTD SVG 1.1//EN"
 "http://www.w3.org/Graphics/SVG/1.1/DTD/svg11.dtd">
<!-- Generated by graphviz version 2.43.0 (0)
 -->
<!-- Title: models_diagram Pages: 1 -->
<svg width="1813pt" height="755pt"
 viewBox="0.00 0.00 1812.69 755.00" xmlns="http://www.w3.org/2000/svg" xmlns:xlink="http://www.w3.org/1999/xlink">
<g id="graph0" class="graph" transform="scale(1 1) rotate(0) translate(4 751)">
<title>models_diagram</title>
<polygon fill="transparent" stroke="transparent" points="-4,4 -4,-751 1808.69,-751 1808.69,4 -4,4"/>
<!-- _diagram_info -->
<g id="node1" class="node">
<title>_diagram_info</title>
<text text-anchor="start" x="8" y="-673.1" font-family="Times,serif" font-size="13.00">Models diagram</text>
<text text-anchor="start" x="8" y="-659.1" font-family="Times,serif" font-size="13.00">Date: Jun 06 2024 &#45; 15:29</text>
<text text-anchor="start" x="8" y="-645.1" font-family="Times,serif" font-size="13.00">Migration version: 20240606080159</text>
<text text-anchor="start" x="8" y="-631.1" font-family="Times,serif" font-size="13.00">Generated by RailRoady 1.6.0</text>
<text text-anchor="start" x="8" y="-617.1" font-family="Times,serif" font-size="13.00">http://railroady.prestonlee.com</text>
</g>
<!-- Ability -->
<g id="node2" class="node">
<title>Ability</title>
<polygon fill="none" stroke="black" points="232.5,-625.5 232.5,-671.5 287.5,-671.5 287.5,-625.5 232.5,-625.5"/>
<text text-anchor="middle" x="260" y="-656.3" font-family="Times,serif" font-size="14.00">Ability</text>
<polyline fill="none" stroke="black" points="232.5,-648.5 287.5,-648.5 "/>
<text text-anchor="middle" x="260" y="-633.3" font-family="Times,serif" font-size="14.00"> </text>
</g>
<!-- Announcement -->
<g id="node3" class="node">
<title>Announcement</title>
<path fill="none" stroke="black" d="M318,-580.5C318,-580.5 468,-580.5 468,-580.5 474,-580.5 480,-586.5 480,-592.5 480,-592.5 480,-704.5 480,-704.5 480,-710.5 474,-716.5 468,-716.5 468,-716.5 318,-716.5 318,-716.5 312,-716.5 306,-710.5 306,-704.5 306,-704.5 306,-592.5 306,-592.5 306,-586.5 312,-580.5 318,-580.5"/>
<text text-anchor="middle" x="393" y="-701.3" font-family="Times,serif" font-size="14.00">Announcement</text>
<polyline fill="none" stroke="black" points="306,-693.5 480,-693.5 "/>
<text text-anchor="start" x="314" y="-678.3" font-family="Times,serif" font-size="14.00">id :INTEGER</text>
<text text-anchor="start" x="314" y="-663.3" font-family="Times,serif" font-size="14.00">published_at :datetime(6)</text>
<text text-anchor="start" x="314" y="-648.3" font-family="Times,serif" font-size="14.00">announcement_type :varchar</text>
<text text-anchor="start" x="314" y="-633.3" font-family="Times,serif" font-size="14.00">name :varchar</text>
<text text-anchor="start" x="314" y="-618.3" font-family="Times,serif" font-size="14.00">description :TEXT</text>
<text text-anchor="start" x="314" y="-603.3" font-family="Times,serif" font-size="14.00">created_at :datetime(6)</text>
<text text-anchor="start" x="314" y="-588.3" font-family="Times,serif" font-size="14.00">updated_at :datetime(6)</text>
</g>
<!-- ApplicationRecord -->
<g id="node4" class="node">
<title>ApplicationRecord</title>
<ellipse fill="none" stroke="black" cx="575" cy="-648.5" rx="77.19" ry="18"/>
<text text-anchor="middle" x="575" y="-644.8" font-family="Times,serif" font-size="14.00">ApplicationRecord</text>
</g>
<!-- Article -->
<g id="node5" class="node">
<title>Article</title>
<path fill="none" stroke="black" d="M682,-573C682,-573 804,-573 804,-573 810,-573 816,-579 816,-585 816,-585 816,-712 816,-712 816,-718 810,-724 804,-724 804,-724 682,-724 682,-724 676,-724 670,-718 670,-712 670,-712 670,-585 670,-585 670,-579 676,-573 682,-573"/>
<text text-anchor="middle" x="743" y="-708.8" font-family="Times,serif" font-size="14.00">Article</text>
<polyline fill="none" stroke="black" points="670,-701 816,-701 "/>
<text text-anchor="start" x="678" y="-685.8" font-family="Times,serif" font-size="14.00">id :INTEGER</text>
<text text-anchor="start" x="678" y="-670.8" font-family="Times,serif" font-size="14.00">issue_id :INTEGER</text>
<text text-anchor="start" x="678" y="-655.8" font-family="Times,serif" font-size="14.00">title :varchar</text>
<text text-anchor="start" x="678" y="-640.8" font-family="Times,serif" font-size="14.00">tagline :TEXT</text>
<text text-anchor="start" x="678" y="-625.8" font-family="Times,serif" font-size="14.00">author_id :INTEGER</text>
<text text-anchor="start" x="678" y="-610.8" font-family="Times,serif" font-size="14.00">position :INTEGER</text>
<text text-anchor="start" x="678" y="-595.8" font-family="Times,serif" font-size="14.00">created_at :datetime(6)</text>
<text text-anchor="start" x="678" y="-580.8" font-family="Times,serif" font-size="14.00">updated_at :datetime(6)</text>
</g>
<!-- Author -->
<g id="node6" class="node">
<title>Author</title>
<path fill="none" stroke="black" d="M688,-0.5C688,-0.5 810,-0.5 810,-0.5 816,-0.5 822,-6.5 822,-12.5 822,-12.5 822,-94.5 822,-94.5 822,-100.5 816,-106.5 810,-106.5 810,-106.5 688,-106.5 688,-106.5 682,-106.5 676,-100.5 676,-94.5 676,-94.5 676,-12.5 676,-12.5 676,-6.5 682,-0.5 688,-0.5"/>
<text text-anchor="middle" x="749" y="-91.3" font-family="Times,serif" font-size="14.00">Author</text>
<polyline fill="none" stroke="black" points="676,-83.5 822,-83.5 "/>
<text text-anchor="start" x="684" y="-68.3" font-family="Times,serif" font-size="14.00">id :INTEGER</text>
<text text-anchor="start" x="684" y="-53.3" font-family="Times,serif" font-size="14.00">name :varchar</text>
<text text-anchor="start" x="684" y="-38.3" font-family="Times,serif" font-size="14.00">location :varchar</text>
<text text-anchor="start" x="684" y="-23.3" font-family="Times,serif" font-size="14.00">created_at :datetime(6)</text>
<text text-anchor="start" x="684" y="-8.3" font-family="Times,serif" font-size="14.00">updated_at :datetime(6)</text>
</g>
<!-- Article&#45;&gt;Author -->
<g id="edge2" class="edge">
<title>Article&#45;&gt;Author</title>
<path fill="none" stroke="#a753c1" d="M740.09,-562.65C739.64,-546.19 739.24,-529.06 739,-513 737.6,-418.79 737.09,-395.2 739,-301 740.27,-238.43 743.35,-166.99 745.76,-117.18"/>
<polygon fill="#a753c1" stroke="#a753c1" points="740.1,-562.81 735.89,-572.94 740.24,-567.81 740.38,-572.81 740.38,-572.81 740.38,-572.81 740.24,-567.81 744.88,-572.68 740.1,-562.81 740.1,-562.81"/>
<polygon fill="#a753c1" stroke="#a753c1" points="745.77,-116.88 750.75,-107.12 746.01,-111.89 746.26,-106.9 746.26,-106.9 746.26,-106.9 746.01,-111.89 741.76,-106.68 745.77,-116.88 745.77,-116.88"/>
</g>
<!-- Issue -->
<g id="node7" class="node">
<title>Issue</title>
<path fill="none" stroke="black" d="M760,-354C760,-354 888,-354 888,-354 894,-354 900,-360 900,-366 900,-366 900,-448 900,-448 900,-454 894,-460 888,-460 888,-460 760,-460 760,-460 754,-460 748,-454 748,-448 748,-448 748,-366 748,-366 748,-360 754,-354 760,-354"/>
<text text-anchor="middle" x="824" y="-444.8" font-family="Times,serif" font-size="14.00">Issue</text>
<polyline fill="none" stroke="black" points="748,-437 900,-437 "/>
<text text-anchor="start" x="756" y="-421.8" font-family="Times,serif" font-size="14.00">id :INTEGER</text>
<text text-anchor="start" x="756" y="-406.8" font-family="Times,serif" font-size="14.00">publish_date :date</text>
<text text-anchor="start" x="756" y="-391.8" font-family="Times,serif" font-size="14.00">magazine_id :INTEGER</text>
<text text-anchor="start" x="756" y="-376.8" font-family="Times,serif" font-size="14.00">created_at :datetime(6)</text>
<text text-anchor="start" x="756" y="-361.8" font-family="Times,serif" font-size="14.00">updated_at :datetime(6)</text>
</g>
<!-- Article&#45;&gt;Issue -->
<g id="edge1" class="edge">
<title>Article&#45;&gt;Issue</title>
<path fill="none" stroke="#18f7a2" d="M771.52,-563.16C781.9,-532.49 793.42,-498.42 803.02,-470.03"/>
<polygon fill="#18f7a2" stroke="#18f7a2" points="771.5,-563.23 764.03,-571.26 769.9,-567.97 768.3,-572.71 768.3,-572.71 768.3,-572.71 769.9,-567.97 772.56,-574.15 771.5,-563.23 771.5,-563.23"/>
<polygon fill="#18f7a2" stroke="#18f7a2" points="803.13,-469.72 810.59,-461.69 804.73,-464.98 806.33,-460.25 806.33,-460.25 806.33,-460.25 804.73,-464.98 802.07,-458.8 803.13,-469.72 803.13,-469.72"/>
</g>
<!-- Issue&#45;&gt;Author -->
<g id="edge5" class="edge">
<title>Issue&#45;&gt;Author</title>
<path fill="none" stroke="#dcfe4a" d="M797.95,-344.54C787,-316.23 775.16,-281.91 768,-250 758.13,-206.02 753.39,-155.33 751.11,-116.59"/>
<polygon fill="#dcfe4a" stroke="#dcfe4a" points="797.97,-344.59 797.44,-355.54 799.8,-349.24 801.63,-353.9 801.63,-353.9 801.63,-353.9 799.8,-349.24 805.82,-352.25 797.97,-344.59 797.97,-344.59"/>
<polygon fill="#dcfe4a" stroke="#dcfe4a" points="751.1,-116.49 755.05,-106.26 750.83,-111.5 750.55,-106.5 750.55,-106.5 750.55,-106.5 750.83,-111.5 746.06,-106.75 751.1,-116.49 751.1,-116.49"/>
</g>
<!-- Magazine -->
<g id="node8" class="node">
<title>Magazine</title>
<path fill="none" stroke="black" d="M789,-158.5C789,-158.5 911,-158.5 911,-158.5 917,-158.5 923,-164.5 923,-170.5 923,-170.5 923,-237.5 923,-237.5 923,-243.5 917,-249.5 911,-249.5 911,-249.5 789,-249.5 789,-249.5 783,-249.5 777,-243.5 777,-237.5 777,-237.5 777,-170.5 777,-170.5 777,-164.5 783,-158.5 789,-158.5"/>
<text text-anchor="middle" x="850" y="-234.3" font-family="Times,serif" font-size="14.00">Magazine</text>
<polyline fill="none" stroke="black" points="777,-226.5 923,-226.5 "/>
<text text-anchor="start" x="785" y="-211.3" font-family="Times,serif" font-size="14.00">id :INTEGER</text>
<text text-anchor="start" x="785" y="-196.3" font-family="Times,serif" font-size="14.00">name :varchar</text>
<text text-anchor="start" x="785" y="-181.3" font-family="Times,serif" font-size="14.00">created_at :datetime(6)</text>
<text text-anchor="start" x="785" y="-166.3" font-family="Times,serif" font-size="14.00">updated_at :datetime(6)</text>
</g>
<!-- Issue&#45;&gt;Magazine -->
<g id="edge3" class="edge">
<title>Issue&#45;&gt;Magazine</title>
<path fill="none" stroke="#5a2609" d="M832.04,-343.87C835.52,-316.96 839.56,-285.73 842.92,-259.71"/>
<polygon fill="#5a2609" stroke="#5a2609" points="832.01,-344.06 826.27,-353.4 831.37,-349.02 830.73,-353.98 830.73,-353.98 830.73,-353.98 831.37,-349.02 835.19,-354.55 832.01,-344.06 832.01,-344.06"/>
<polygon fill="#5a2609" stroke="#5a2609" points="842.94,-259.56 848.69,-250.22 843.58,-254.61 844.22,-249.65 844.22,-249.65 844.22,-249.65 843.58,-254.61 839.76,-249.07 842.94,-259.56 842.94,-259.56"/>
</g>
<!-- ActionText::RichText -->
<g id="node11" class="node">
<title>ActionText::RichText</title>
<ellipse fill="none" stroke="black" cx="948" cy="-53.5" rx="88.28" ry="18"/>
<text text-anchor="middle" x="948" y="-49.8" font-family="Times,serif" font-size="14.00">ActionText::RichText</text>
</g>
<!-- Issue&#45;&gt;ActionText::RichText -->
<g id="edge4" class="edge">
<title>Issue&#45;&gt;ActionText::RichText</title>
<path fill="none" stroke="#b1d287" d="M874.02,-345.93C894.78,-318.24 917.38,-284.02 932,-250 954.3,-198.1 957.79,-181.42 955,-125 954.29,-110.7 952.78,-94.83 951.34,-81.77"/>
<polygon fill="#b1d287" stroke="#b1d287" points="873.99,-345.97 864.36,-351.2 870.97,-349.95 867.94,-353.93 867.94,-353.93 867.94,-353.93 870.97,-349.95 871.52,-356.65 873.99,-345.97 873.99,-345.97"/>
<polygon fill="#b1d287" stroke="#b1d287" points="951.31,-81.49 954.64,-71.05 950.74,-76.53 950.17,-71.56 950.17,-71.56 950.17,-71.56 950.74,-76.53 945.7,-72.07 951.31,-81.49 951.31,-81.49"/>
<text text-anchor="middle" x="998.5" y="-200.3" font-family="Times,serif" font-size="14.00">rich_text_cover</text>
</g>
<!-- Magazine&#45;&gt;Author -->
<g id="edge7" class="edge">
<title>Magazine&#45;&gt;Author</title>
<path fill="none" stroke="#66be76" d="M813.85,-149.85C806.15,-138.53 797.97,-126.49 790.1,-114.92"/>
<polygon fill="#66be76" stroke="#66be76" points="814.07,-150.18 815.98,-160.98 816.88,-154.31 819.7,-158.45 819.7,-158.45 819.7,-158.45 816.88,-154.31 823.42,-155.91 814.07,-150.18 814.07,-150.18"/>
<polygon fill="#66be76" stroke="#66be76" points="790.06,-114.87 788.16,-104.07 787.25,-110.73 784.43,-106.6 784.43,-106.6 784.43,-106.6 787.25,-110.73 780.71,-109.13 790.06,-114.87 790.06,-114.87"/>
</g>
<!-- Magazine&#45;&gt;ActionText::RichText -->
<g id="edge6" class="edge">
<title>Magazine&#45;&gt;ActionText::RichText</title>
<path fill="none" stroke="#9fea6c" d="M834.54,-148.13C834.63,-140.06 836.16,-132.09 840,-125 852.41,-102.09 875.85,-85.44 897.74,-74.09"/>
<polygon fill="#9fea6c" stroke="#9fea6c" points="834.55,-148.36 830.64,-158.6 834.84,-153.35 835.13,-158.34 835.13,-158.34 835.13,-158.34 834.84,-153.35 839.62,-158.08 834.55,-148.36 834.55,-148.36"/>
<polygon fill="#9fea6c" stroke="#9fea6c" points="898.01,-73.96 908.97,-73.59 902.49,-71.75 906.98,-69.55 906.98,-69.55 906.98,-69.55 902.49,-71.75 905,-65.51 898.01,-73.96 898.01,-73.96"/>
<text text-anchor="middle" x="897.5" y="-128.8" font-family="Times,serif" font-size="14.00">rich_text_description</text>
</g>
<!-- Service -->
<g id="node9" class="node">
<title>Service</title>
<path fill="none" stroke="black" d="M1405,-550.5C1405,-550.5 1555,-550.5 1555,-550.5 1561,-550.5 1567,-556.5 1567,-562.5 1567,-562.5 1567,-734.5 1567,-734.5 1567,-740.5 1561,-746.5 1555,-746.5 1555,-746.5 1405,-746.5 1405,-746.5 1399,-746.5 1393,-740.5 1393,-734.5 1393,-734.5 1393,-562.5 1393,-562.5 1393,-556.5 1399,-550.5 1405,-550.5"/>
<text text-anchor="middle" x="1480" y="-731.3" font-family="Times,serif" font-size="14.00">Service</text>
<polyline fill="none" stroke="black" points="1393,-723.5 1567,-723.5 "/>
<text text-anchor="start" x="1401" y="-708.3" font-family="Times,serif" font-size="14.00">id :INTEGER</text>
<text text-anchor="start" x="1401" y="-693.3" font-family="Times,serif" font-size="14.00">user_id :INTEGER</text>
<text text-anchor="start" x="1401" y="-678.3" font-family="Times,serif" font-size="14.00">provider :varchar</text>
<text text-anchor="start" x="1401" y="-663.3" font-family="Times,serif" font-size="14.00">uid :varchar</text>
<text text-anchor="start" x="1401" y="-648.3" font-family="Times,serif" font-size="14.00">access_token :varchar</text>
<text text-anchor="start" x="1401" y="-633.3" font-family="Times,serif" font-size="14.00">access_token_secret :varchar</text>
<text text-anchor="start" x="1401" y="-618.3" font-family="Times,serif" font-size="14.00">refresh_token :varchar</text>
<text text-anchor="start" x="1401" y="-603.3" font-family="Times,serif" font-size="14.00">expires_at :datetime(6)</text>
<text text-anchor="start" x="1401" y="-588.3" font-family="Times,serif" font-size="14.00">auth :TEXT</text>
<text text-anchor="start" x="1401" y="-573.3" font-family="Times,serif" font-size="14.00">created_at :datetime(6)</text>
<text text-anchor="start" x="1401" y="-558.3" font-family="Times,serif" font-size="14.00">updated_at :datetime(6)</text>
</g>
<!-- User -->
<g id="node10" class="node">
<title>User</title>
<path fill="none" stroke="black" d="M1370,-301.5C1370,-301.5 1590,-301.5 1590,-301.5 1596,-301.5 1602,-307.5 1602,-313.5 1602,-313.5 1602,-500.5 1602,-500.5 1602,-506.5 1596,-512.5 1590,-512.5 1590,-512.5 1370,-512.5 1370,-512.5 1364,-512.5 1358,-506.5 1358,-500.5 1358,-500.5 1358,-313.5 1358,-313.5 1358,-307.5 1364,-301.5 1370,-301.5"/>
<text text-anchor="middle" x="1480" y="-497.3" font-family="Times,serif" font-size="14.00">User</text>
<polyline fill="none" stroke="black" points="1358,-489.5 1602,-489.5 "/>
<text text-anchor="start" x="1366" y="-474.3" font-family="Times,serif" font-size="14.00">id :INTEGER</text>
<text text-anchor="start" x="1366" y="-459.3" font-family="Times,serif" font-size="14.00">email :varchar</text>
<text text-anchor="start" x="1366" y="-444.3" font-family="Times,serif" font-size="14.00">encrypted_password :varchar</text>
<text text-anchor="start" x="1366" y="-429.3" font-family="Times,serif" font-size="14.00">reset_password_token :varchar</text>
<text text-anchor="start" x="1366" y="-414.3" font-family="Times,serif" font-size="14.00">reset_password_sent_at :datetime(6)</text>
<text text-anchor="start" x="1366" y="-399.3" font-family="Times,serif" font-size="14.00">remember_created_at :datetime(6)</text>
<text text-anchor="start" x="1366" y="-384.3" font-family="Times,serif" font-size="14.00">first_name :varchar</text>
<text text-anchor="start" x="1366" y="-369.3" font-family="Times,serif" font-size="14.00">last_name :varchar</text>
<text text-anchor="start" x="1366" y="-354.3" font-family="Times,serif" font-size="14.00">announcements_last_read_at :datetime(6)</text>
<text text-anchor="start" x="1366" y="-339.3" font-family="Times,serif" font-size="14.00">admin :boolean</text>
<text text-anchor="start" x="1366" y="-324.3" font-family="Times,serif" font-size="14.00">created_at :datetime(6)</text>
<text text-anchor="start" x="1366" y="-309.3" font-family="Times,serif" font-size="14.00">updated_at :datetime(6)</text>
</g>
<!-- Service&#45;&gt;User -->
<g id="edge8" class="edge">
<title>Service&#45;&gt;User</title>
<path fill="none" stroke="#6aa336" d="M1480,-540.16C1480,-534.44 1480,-528.68 1480,-522.94"/>
<polygon fill="#6aa336" stroke="#6aa336" points="1480,-540.43 1475.5,-550.43 1480,-545.43 1480,-550.43 1480,-550.43 1480,-550.43 1480,-545.43 1484.5,-550.43 1480,-540.43 1480,-540.43"/>
<polygon fill="#6aa336" stroke="#6aa336" points="1480,-522.63 1484.5,-512.63 1480,-517.63 1480,-512.63 1480,-512.63 1480,-512.63 1480,-517.63 1475.5,-512.63 1480,-522.63 1480,-522.63"/>
</g>
<!-- ActiveStorage::Attachment -->
<g id="node12" class="node">
<title>ActiveStorage::Attachment</title>
<ellipse fill="none" stroke="black" cx="1179" cy="-204" rx="107.48" ry="18"/>
<text text-anchor="middle" x="1179" y="-200.3" font-family="Times,serif" font-size="14.00">ActiveStorage::Attachment</text>
</g>
<!-- User&#45;&gt;ActiveStorage::Attachment -->
<g id="edge9" class="edge">
<title>User&#45;&gt;ActiveStorage::Attachment</title>
<path fill="none" stroke="#13bc73" d="M1349.17,-318.63C1298.88,-285.05 1245.61,-249.48 1212.34,-227.27"/>
<polygon fill="#13bc73" stroke="#13bc73" points="1349.26,-318.69 1355.07,-327.99 1353.41,-321.47 1357.57,-324.25 1357.57,-324.25 1357.57,-324.25 1353.41,-321.47 1360.07,-320.5 1349.26,-318.69 1349.26,-318.69"/>
<polygon fill="#13bc73" stroke="#13bc73" points="1212.24,-227.19 1206.42,-217.9 1208.08,-224.42 1203.92,-221.64 1203.92,-221.64 1203.92,-221.64 1208.08,-224.42 1201.42,-225.38 1212.24,-227.19 1212.24,-227.19"/>
<text text-anchor="middle" x="1344" y="-271.8" font-family="Times,serif" font-size="14.00">avatar_attachment</text>
</g>
<!-- ActiveStorage::Blob -->
<g id="node13" class="node">
<title>ActiveStorage::Blob</title>
<ellipse fill="none" stroke="black" cx="1387" cy="-204" rx="83.39" ry="18"/>
<text text-anchor="middle" x="1387" y="-200.3" font-family="Times,serif" font-size="14.00">ActiveStorage::Blob</text>
</g>
<!-- User&#45;&gt;ActiveStorage::Blob -->
<g id="edge10" class="edge">
<title>User&#45;&gt;ActiveStorage::Blob</title>
<path fill="none" stroke="#f23441" d="M1427.25,-291.99C1416.69,-269.16 1406.56,-247.29 1399.11,-231.18"/>
<polygon fill="#f23441" stroke="#f23441" points="1427.39,-292.3 1427.51,-303.27 1429.49,-296.84 1431.59,-301.38 1431.59,-301.38 1431.59,-301.38 1429.49,-296.84 1435.68,-299.49 1427.39,-292.3 1427.39,-292.3"/>
<polygon fill="#f23441" stroke="#f23441" points="1399.04,-231.02 1398.92,-220.05 1396.94,-226.48 1394.84,-221.94 1394.84,-221.94 1394.84,-221.94 1396.94,-226.48 1390.75,-223.83 1399.04,-231.02 1399.04,-231.02"/>
<text text-anchor="middle" x="1455" y="-271.8" font-family="Times,serif" font-size="14.00">avatar_blob</text>
</g>
<!-- Noticed::Notification -->
<g id="node14" class="node">
<title>Noticed::Notification</title>
<ellipse fill="none" stroke="black" cx="1574" cy="-204" rx="85.59" ry="18"/>
<text text-anchor="middle" x="1574" y="-200.3" font-family="Times,serif" font-size="14.00">Noticed::Notification</text>
</g>
<!-- User&#45;&gt;Noticed::Notification -->
<g id="edge11" class="edge">
<title>User&#45;&gt;Noticed::Notification</title>
<path fill="none" stroke="#6410d3" d="M1533.32,-291.99C1543.99,-269.16 1554.22,-247.29 1561.76,-231.18"/>
<polygon fill="#6410d3" stroke="#6410d3" points="1533.16,-292.32 1524.85,-299.47 1531.05,-296.85 1528.93,-301.38 1528.93,-301.38 1528.93,-301.38 1531.05,-296.85 1533,-303.29 1533.16,-292.32 1533.16,-292.32"/>
<polygon fill="#6410d3" stroke="#6410d3" points="1561.84,-231 1570.15,-223.85 1563.96,-226.47 1566.08,-221.94 1566.08,-221.94 1566.08,-221.94 1563.96,-226.47 1562,-220.03 1561.84,-231 1561.84,-231"/>
<text text-anchor="middle" x="1578" y="-271.8" font-family="Times,serif" font-size="14.00">notifications</text>
</g>
<!-- Noticed::Event -->
<g id="node15" class="node">
<title>Noticed::Event</title>
<ellipse fill="none" stroke="black" cx="1741" cy="-204" rx="63.89" ry="18"/>
<text text-anchor="middle" x="1741" y="-200.3" font-family="Times,serif" font-size="14.00">Noticed::Event</text>
</g>
<!-- User&#45;&gt;Noticed::Event -->
<g id="edge12" class="edge">
<title>User&#45;&gt;Noticed::Event</title>
<path fill="none" stroke="#fa1be3" d="M1610.03,-305.86C1648.26,-276.42 1686.53,-246.95 1711.75,-227.53"/>
<polygon fill="#fa1be3" stroke="#fa1be3" points="1610.02,-305.87 1599.35,-308.41 1606.06,-308.92 1602.09,-311.97 1602.09,-311.97 1602.09,-311.97 1606.06,-308.92 1604.84,-315.54 1610.02,-305.87 1610.02,-305.87"/>
<polygon fill="#fa1be3" stroke="#fa1be3" points="1711.85,-227.45 1722.52,-224.91 1715.81,-224.4 1719.78,-221.34 1719.78,-221.34 1719.78,-221.34 1715.81,-224.4 1717.03,-217.78 1711.85,-227.45 1711.85,-227.45"/>
<text text-anchor="middle" x="1716" y="-271.8" font-family="Times,serif" font-size="14.00">notification_mentions</text>
</g>
</g>
</svg>
