<?xml version="1.0" encoding="UTF-8" standalone="no"?>
<!DOCTYPE svg PUBLIC "-//W3C//DTD SVG 1.1//EN"
 "http://www.w3.org/Graphics/SVG/1.1/DTD/svg11.dtd">
<!-- Generated by graphviz version 2.43.0 (0)
 -->
<!-- Title: models_diagram Pages: 1 -->
<svg width="1714pt" height="333pt"
 viewBox="0.00 0.00 1713.69 333.00" xmlns="http://www.w3.org/2000/svg" xmlns:xlink="http://www.w3.org/1999/xlink">
<g id="graph0" class="graph" transform="scale(1 1) rotate(0) translate(4 329)">
<title>models_diagram</title>
<polygon fill="transparent" stroke="transparent" points="-4,4 -4,-329 1709.69,-329 1709.69,4 -4,4"/>
<!-- _diagram_info -->
<g id="node1" class="node">
<title>_diagram_info</title>
<text text-anchor="start" x="8" y="-310.6" font-family="Times,serif" font-size="13.00">Models diagram</text>
<text text-anchor="start" x="8" y="-296.6" font-family="Times,serif" font-size="13.00">Date: Jun 06 2024 &#45; 15:30</text>
<text text-anchor="start" x="8" y="-282.6" font-family="Times,serif" font-size="13.00">Migration version: 20240606080159</text>
<text text-anchor="start" x="8" y="-268.6" font-family="Times,serif" font-size="13.00">Generated by RailRoady 1.6.0</text>
<text text-anchor="start" x="8" y="-254.6" font-family="Times,serif" font-size="13.00">http://railroady.prestonlee.com</text>
</g>
<!-- Ability -->
<g id="node2" class="node">
<title>Ability</title>
<polygon fill="none" stroke="black" points="287.5,-304 232.5,-304 232.5,-268 287.5,-268 287.5,-304"/>
<text text-anchor="middle" x="260" y="-282.3" font-family="Times,serif" font-size="14.00">Ability</text>
</g>
<!-- Announcement -->
<g id="node3" class="node">
<title>Announcement</title>
<ellipse fill="none" stroke="black" cx="370" cy="-286" rx="64.99" ry="18"/>
<text text-anchor="middle" x="370" y="-282.3" font-family="Times,serif" font-size="14.00">Announcement</text>
</g>
<!-- ApplicationRecord -->
<g id="node4" class="node">
<title>ApplicationRecord</title>
<ellipse fill="none" stroke="black" cx="530" cy="-286" rx="77.19" ry="18"/>
<text text-anchor="middle" x="530" y="-282.3" font-family="Times,serif" font-size="14.00">ApplicationRecord</text>
</g>
<!-- Article -->
<g id="node5" class="node">
<title>Article</title>
<ellipse fill="none" stroke="black" cx="660" cy="-286" rx="35.19" ry="18"/>
<text text-anchor="middle" x="660" y="-282.3" font-family="Times,serif" font-size="14.00">Article</text>
</g>
<!-- Author -->
<g id="node6" class="node">
<title>Author</title>
<ellipse fill="none" stroke="black" cx="670" cy="-18" rx="36" ry="18"/>
<text text-anchor="middle" x="670" y="-14.3" font-family="Times,serif" font-size="14.00">Author</text>
</g>
<!-- Article&#45;&gt;Author -->
<g id="edge2" class="edge">
<title>Article&#45;&gt;Author</title>
<path fill="none" stroke="#528732" d="M661.03,-257.64C662.95,-206.65 667.04,-97.63 668.97,-46.52"/>
<polygon fill="#528732" stroke="#528732" points="661.02,-257.96 656.14,-267.79 660.83,-262.96 660.64,-267.96 660.64,-267.96 660.64,-267.96 660.83,-262.96 665.14,-268.12 661.02,-257.96 661.02,-257.96"/>
<polygon fill="#528732" stroke="#528732" points="668.98,-46.24 673.85,-36.42 669.16,-41.24 669.35,-36.25 669.35,-36.25 669.35,-36.25 669.16,-41.24 664.85,-36.08 668.98,-46.24 668.98,-46.24"/>
</g>
<!-- Issue -->
<g id="node7" class="node">
<title>Issue</title>
<ellipse fill="none" stroke="black" cx="706" cy="-192" rx="28.7" ry="18"/>
<text text-anchor="middle" x="706" y="-188.3" font-family="Times,serif" font-size="14.00">Issue</text>
</g>
<!-- Article&#45;&gt;Issue -->
<g id="edge1" class="edge">
<title>Article&#45;&gt;Issue</title>
<path fill="none" stroke="#644979" d="M673.08,-258.83C679.41,-246.18 686.98,-231.04 693.26,-218.48"/>
<polygon fill="#644979" stroke="#644979" points="672.91,-259.18 664.41,-266.11 670.67,-263.65 668.44,-268.13 668.44,-268.13 668.44,-268.13 670.67,-263.65 672.46,-270.14 672.91,-259.18 672.91,-259.18"/>
<polygon fill="#644979" stroke="#644979" points="693.3,-218.4 701.8,-211.47 695.54,-213.93 697.77,-209.46 697.77,-209.46 697.77,-209.46 695.54,-213.93 693.75,-207.45 693.3,-218.4 693.3,-218.4"/>
</g>
<!-- Issue&#45;&gt;Author -->
<g id="edge5" class="edge">
<title>Issue&#45;&gt;Author</title>
<path fill="none" stroke="#d099ee" d="M698.89,-164.24C695.68,-151.75 691.95,-136.66 689,-123 683.39,-97.03 678.05,-67.17 674.47,-46.13"/>
<polygon fill="#d099ee" stroke="#d099ee" points="698.92,-164.35 697.08,-175.16 700.17,-169.19 701.43,-174.02 701.43,-174.02 701.43,-174.02 700.17,-169.19 705.79,-172.89 698.92,-164.35 698.92,-164.35"/>
<polygon fill="#d099ee" stroke="#d099ee" points="674.42,-45.86 677.2,-35.25 673.59,-40.93 672.76,-36 672.76,-36 672.76,-36 673.59,-40.93 668.32,-36.75 674.42,-45.86 674.42,-45.86"/>
</g>
<!-- Magazine -->
<g id="node8" class="node">
<title>Magazine</title>
<ellipse fill="none" stroke="black" cx="744" cy="-105" rx="46.29" ry="18"/>
<text text-anchor="middle" x="744" y="-101.3" font-family="Times,serif" font-size="14.00">Magazine</text>
</g>
<!-- Issue&#45;&gt;Magazine -->
<g id="edge3" class="edge">
<title>Issue&#45;&gt;Magazine</title>
<path fill="none" stroke="#9b36e1" d="M717.68,-164.87C722.29,-154.56 727.58,-142.74 732.2,-132.4"/>
<polygon fill="#9b36e1" stroke="#9b36e1" points="717.59,-165.08 709.4,-172.37 715.55,-169.64 713.51,-174.21 713.51,-174.21 713.51,-174.21 715.55,-169.64 717.62,-176.04 717.59,-165.08 717.59,-165.08"/>
<polygon fill="#9b36e1" stroke="#9b36e1" points="732.3,-132.18 740.49,-124.89 734.34,-127.61 736.38,-123.05 736.38,-123.05 736.38,-123.05 734.34,-127.61 732.27,-121.21 732.3,-132.18 732.3,-132.18"/>
</g>
<!-- ActionText::RichText -->
<g id="node11" class="node">
<title>ActionText::RichText</title>
<ellipse fill="none" stroke="black" cx="841" cy="-18" rx="88.28" ry="18"/>
<text text-anchor="middle" x="841" y="-14.3" font-family="Times,serif" font-size="14.00">ActionText::RichText</text>
</g>
<!-- Issue&#45;&gt;ActionText::RichText -->
<g id="edge4" class="edge">
<title>Issue&#45;&gt;ActionText::RichText</title>
<path fill="none" stroke="#6c8821" d="M738.19,-176.48C775.14,-157.75 833.54,-121.23 856,-69 859.22,-61.51 858.33,-53.1 855.81,-45.35"/>
<polygon fill="#6c8821" stroke="#6c8821" points="737.81,-176.67 726.86,-177.04 733.33,-178.87 728.84,-181.08 728.84,-181.08 728.84,-181.08 733.33,-178.87 730.82,-185.12 737.81,-176.67 737.81,-176.67"/>
<polygon fill="#6c8821" stroke="#6c8821" points="855.76,-45.25 856.1,-34.29 853.85,-40.63 851.94,-36.01 851.94,-36.01 851.94,-36.01 853.85,-40.63 847.78,-37.73 855.76,-45.25 855.76,-45.25"/>
<text text-anchor="middle" x="888.5" y="-101.3" font-family="Times,serif" font-size="14.00">rich_text_cover</text>
</g>
<!-- Magazine&#45;&gt;Author -->
<g id="edge7" class="edge">
<title>Magazine&#45;&gt;Author</title>
<path fill="none" stroke="#afb193" d="M723.09,-79.99C712.85,-68.22 700.55,-54.1 690.38,-42.41"/>
<polygon fill="#afb193" stroke="#afb193" points="723.17,-80.07 726.34,-90.57 726.45,-83.84 729.73,-87.61 729.73,-87.61 729.73,-87.61 726.45,-83.84 733.13,-84.66 723.17,-80.07 723.17,-80.07"/>
<polygon fill="#afb193" stroke="#afb193" points="690.29,-42.31 687.12,-31.81 687.01,-38.53 683.72,-34.76 683.72,-34.76 683.72,-34.76 687.01,-38.53 680.33,-37.72 690.29,-42.31 690.29,-42.31"/>
</g>
<!-- Magazine&#45;&gt;ActionText::RichText -->
<g id="edge6" class="edge">
<title>Magazine&#45;&gt;ActionText::RichText</title>
<path fill="none" stroke="#8c4d5b" d="M736.18,-76.71C735.46,-68.78 736.38,-60.51 741,-54 747.09,-45.42 755.45,-38.92 764.77,-34.01"/>
<polygon fill="#8c4d5b" stroke="#8c4d5b" points="736.21,-76.9 733.46,-87.52 737.05,-81.83 737.9,-86.76 737.9,-86.76 737.9,-86.76 737.05,-81.83 742.33,-86 736.21,-76.9 736.21,-76.9"/>
<polygon fill="#8c4d5b" stroke="#8c4d5b" points="764.87,-33.96 775.83,-33.86 769.41,-31.87 773.95,-29.77 773.95,-29.77 773.95,-29.77 769.41,-31.87 772.06,-25.69 764.87,-33.96 764.87,-33.96"/>
<text text-anchor="middle" x="798.5" y="-57.8" font-family="Times,serif" font-size="14.00">rich_text_description</text>
</g>
<!-- Service -->
<g id="node9" class="node">
<title>Service</title>
<ellipse fill="none" stroke="black" cx="1381" cy="-286" rx="37.09" ry="18"/>
<text text-anchor="middle" x="1381" y="-282.3" font-family="Times,serif" font-size="14.00">Service</text>
</g>
<!-- User -->
<g id="node10" class="node">
<title>User</title>
<ellipse fill="none" stroke="black" cx="1381" cy="-192" rx="27.1" ry="18"/>
<text text-anchor="middle" x="1381" y="-188.3" font-family="Times,serif" font-size="14.00">User</text>
</g>
<!-- Service&#45;&gt;User -->
<g id="edge8" class="edge">
<title>Service&#45;&gt;User</title>
<path fill="none" stroke="#8d84fd" d="M1381,-257.69C1381,-245.92 1381,-232.17 1381,-220.39"/>
<polygon fill="#8d84fd" stroke="#8d84fd" points="1381,-257.7 1376.5,-267.7 1381,-262.7 1381,-267.7 1381,-267.7 1381,-267.7 1381,-262.7 1385.5,-267.7 1381,-257.7 1381,-257.7"/>
<polygon fill="#8d84fd" stroke="#8d84fd" points="1381,-220.23 1385.5,-210.23 1381,-215.23 1381,-210.23 1381,-210.23 1381,-210.23 1381,-215.23 1376.5,-210.23 1381,-220.23 1381,-220.23"/>
</g>
<!-- ActiveStorage::Attachment -->
<g id="node12" class="node">
<title>ActiveStorage::Attachment</title>
<ellipse fill="none" stroke="black" cx="1080" cy="-105" rx="107.48" ry="18"/>
<text text-anchor="middle" x="1080" y="-101.3" font-family="Times,serif" font-size="14.00">ActiveStorage::Attachment</text>
</g>
<!-- User&#45;&gt;ActiveStorage::Attachment -->
<g id="edge9" class="edge">
<title>User&#45;&gt;ActiveStorage::Attachment</title>
<path fill="none" stroke="#a889fb" d="M1344.96,-184.1C1313.15,-177.73 1265.67,-167.53 1225,-156 1193.38,-147.03 1158.53,-135.08 1130.93,-125.12"/>
<polygon fill="#a889fb" stroke="#a889fb" points="1345.3,-184.17 1354.23,-190.52 1350.2,-185.14 1355.11,-186.11 1355.11,-186.11 1355.11,-186.11 1350.2,-185.14 1355.98,-181.7 1345.3,-184.17 1345.3,-184.17"/>
<polygon fill="#a889fb" stroke="#a889fb" points="1130.89,-125.1 1123.03,-117.46 1126.19,-123.39 1121.49,-121.68 1121.49,-121.68 1121.49,-121.68 1126.19,-123.39 1119.95,-125.91 1130.89,-125.1 1130.89,-125.1"/>
<text text-anchor="middle" x="1275" y="-144.8" font-family="Times,serif" font-size="14.00">avatar_attachment</text>
</g>
<!-- ActiveStorage::Blob -->
<g id="node13" class="node">
<title>ActiveStorage::Blob</title>
<ellipse fill="none" stroke="black" cx="1288" cy="-105" rx="83.39" ry="18"/>
<text text-anchor="middle" x="1288" y="-101.3" font-family="Times,serif" font-size="14.00">ActiveStorage::Blob</text>
</g>
<!-- User&#45;&gt;ActiveStorage::Blob -->
<g id="edge10" class="edge">
<title>User&#45;&gt;ActiveStorage::Blob</title>
<path fill="none" stroke="#d18549" d="M1358.25,-170.21C1344.76,-157.88 1327.62,-142.21 1313.65,-129.44"/>
<polygon fill="#d18549" stroke="#d18549" points="1358.26,-170.22 1362.61,-180.29 1361.95,-173.59 1365.64,-176.96 1365.64,-176.96 1365.64,-176.96 1361.95,-173.59 1368.68,-173.64 1358.26,-170.22 1358.26,-170.22"/>
<polygon fill="#d18549" stroke="#d18549" points="1313.64,-129.43 1309.29,-119.36 1309.95,-126.06 1306.26,-122.69 1306.26,-122.69 1306.26,-122.69 1309.95,-126.06 1303.22,-126.01 1313.64,-129.43 1313.64,-129.43"/>
<text text-anchor="middle" x="1373" y="-144.8" font-family="Times,serif" font-size="14.00">avatar_blob</text>
</g>
<!-- Noticed::Notification -->
<g id="node14" class="node">
<title>Noticed::Notification</title>
<ellipse fill="none" stroke="black" cx="1475" cy="-105" rx="85.59" ry="18"/>
<text text-anchor="middle" x="1475" y="-101.3" font-family="Times,serif" font-size="14.00">Noticed::Notification</text>
</g>
<!-- User&#45;&gt;Noticed::Notification -->
<g id="edge11" class="edge">
<title>User&#45;&gt;Noticed::Notification</title>
<path fill="none" stroke="#102cd4" d="M1403.99,-170.21C1417.63,-157.88 1434.95,-142.21 1449.07,-129.44"/>
<polygon fill="#102cd4" stroke="#102cd4" points="1403.94,-170.26 1393.5,-173.63 1400.23,-173.61 1396.52,-176.96 1396.52,-176.96 1396.52,-176.96 1400.23,-173.61 1399.54,-180.3 1403.94,-170.26 1403.94,-170.26"/>
<polygon fill="#102cd4" stroke="#102cd4" points="1449.13,-129.39 1459.57,-126.02 1452.84,-126.04 1456.55,-122.69 1456.55,-122.69 1456.55,-122.69 1452.84,-126.04 1453.53,-119.35 1449.13,-129.39 1449.13,-129.39"/>
<text text-anchor="middle" x="1468" y="-144.8" font-family="Times,serif" font-size="14.00">notifications</text>
</g>
<!-- Noticed::Event -->
<g id="node15" class="node">
<title>Noticed::Event</title>
<ellipse fill="none" stroke="black" cx="1642" cy="-105" rx="63.89" ry="18"/>
<text text-anchor="middle" x="1642" y="-101.3" font-family="Times,serif" font-size="14.00">Noticed::Event</text>
</g>
<!-- User&#45;&gt;Noticed::Event -->
<g id="edge12" class="edge">
<title>User&#45;&gt;Noticed::Event</title>
<path fill="none" stroke="#21b4f6" d="M1415.91,-182.02C1441.1,-175.35 1475.85,-165.75 1506,-156 1536.46,-146.15 1570.24,-133.74 1596.51,-123.75"/>
<polygon fill="#21b4f6" stroke="#21b4f6" points="1415.75,-182.06 1404.93,-180.25 1410.91,-183.33 1406.08,-184.6 1406.08,-184.6 1406.08,-184.6 1410.91,-183.33 1407.22,-188.96 1415.75,-182.06 1415.75,-182.06"/>
<polygon fill="#21b4f6" stroke="#21b4f6" points="1596.85,-123.62 1607.8,-124.25 1601.52,-121.83 1606.19,-120.05 1606.19,-120.05 1606.19,-120.05 1601.52,-121.83 1604.58,-115.84 1596.85,-123.62 1596.85,-123.62"/>
<text text-anchor="middle" x="1608" y="-144.8" font-family="Times,serif" font-size="14.00">notification_mentions</text>
</g>
</g>
</svg>
